<svg width="90" height="90" viewBox="0 0 90 90" fill="none" xmlns="http://www.w3.org/2000/svg">
<path d="M25.9511 87.307C25.8273 87.1771 25.7166 87.0353 25.6207 86.8837L16.0064 71.6918L1.28457 61.3718C0.954476 61.1404 0.67992 60.8386 0.480689 60.4882C0.281457 60.1377 0.162516 59.7474 0.132446 59.3453C0.102377 58.9431 0.161926 58.5393 0.306799 58.1628C0.451673 57.7863 0.67826 57.4465 0.970224 57.168L8.8638 49.6385C9.12294 49.3913 9.42823 49.1975 9.76219 49.0682C10.0962 48.9389 10.4523 48.8767 10.8101 48.885L19.9584 49.0962L29.8897 39.6229L2.27508 20.265C1.94499 20.0336 1.67043 19.7318 1.4712 19.3814C1.27197 19.0309 1.15303 18.6406 1.12296 18.2385C1.09289 17.8363 1.15244 17.4325 1.29731 17.056C1.44219 16.6795 1.66877 16.3397 1.96074 16.0612L9.85431 8.53171C10.2208 8.18218 10.6773 7.94147 11.1726 7.83655C11.6679 7.73164 12.1826 7.76666 12.6588 7.93768L49.3073 21.1058L66.5416 4.73205C69.159 2.2364 72.6596 0.881671 76.2733 0.965878C79.8871 1.05009 83.3179 2.56634 85.8111 5.18107C88.3043 7.79581 89.6557 11.2948 89.5679 14.9084C89.4801 18.522 87.9603 21.9541 85.3429 24.4498L68.1785 40.8887L79.6035 78.1168C79.7519 78.6006 79.7626 79.1163 79.6345 79.6061C79.5063 80.096 79.2443 80.5406 78.8779 80.8902L70.9843 88.4197C70.6923 88.6981 70.3423 88.9085 69.9593 89.0354C69.5764 89.1624 69.1702 89.2028 68.7699 89.1538C68.3696 89.1048 67.9853 88.9676 67.6447 88.752C67.304 88.5365 67.0155 88.248 66.7999 87.9074L48.7658 59.4109L38.8262 68.892L38.5426 77.9773C38.5205 78.6933 38.2173 79.372 37.6986 79.8665L29.8051 87.396C29.2817 87.8952 28.5816 88.1663 27.8589 88.1496C27.1361 88.1329 26.4499 87.8298 25.9511 87.307V87.307ZM11.8074 54.361L7.13845 58.8146L19.585 67.5398C19.8796 67.7463 20.1303 68.0091 20.3227 68.313L28.4512 81.1571L33.1283 76.6956L33.4119 67.6103C33.4341 66.8944 33.7373 66.2157 34.2559 65.7211L47.4119 53.172C47.7038 52.8935 48.0539 52.6832 48.4368 52.5563C48.8197 52.4293 49.226 52.3889 49.6263 52.4379C50.0265 52.4869 50.4108 52.6241 50.7515 52.8396C51.0922 53.0552 51.3807 53.3436 51.5962 53.6843L69.6304 82.1807L73.8973 78.1107L62.4733 40.8864C62.3253 40.4035 62.3143 39.8888 62.4418 39.3997C62.5692 38.9107 62.83 38.4666 63.195 38.1169L81.5778 20.5108C83.1485 19.0137 84.0606 16.9545 84.1136 14.7864C84.1666 12.6182 83.356 10.5187 81.8603 8.94964C81.1197 8.17273 80.2332 7.54945 79.2514 7.11537C78.2695 6.68129 77.2116 6.44492 76.138 6.41975C73.9698 6.36894 71.8693 7.18149 70.2986 8.67867L51.8411 26.2144C51.4745 26.5625 51.0186 26.802 50.5241 26.9063C50.0296 27.0105 49.516 26.9753 49.0406 26.8046L12.3958 13.6378L8.12897 17.7078L35.7436 37.0657C36.0737 37.2971 36.3483 37.5989 36.5475 37.9493C36.7467 38.2998 36.8657 38.6901 36.8957 39.0923C36.9258 39.4944 36.8663 39.8983 36.7214 40.2748C36.5765 40.6513 36.3499 40.991 36.058 41.2695L22.902 53.8187C22.6429 54.0659 22.3376 54.2597 22.0036 54.389C21.6696 54.5183 21.3135 54.5805 20.9557 54.5722L11.8074 54.361Z" fill="white"/>
</svg>
