<svg width="100" height="69" viewBox="0 0 100 69" fill="none" xmlns="http://www.w3.org/2000/svg">
<path d="M27.2727 36.3636C29.9697 36.3636 32.6062 35.5639 34.8487 34.0655C37.0912 32.5671 38.839 30.4374 39.8711 27.9457C40.9032 25.454 41.1732 22.7121 40.6471 20.067C40.1209 17.4218 38.8222 14.992 36.9151 13.0849C35.008 11.1778 32.5782 9.87909 29.933 9.35293C27.2879 8.82677 24.546 9.09681 22.0543 10.1289C19.5626 11.161 17.4329 12.9088 15.9345 15.1513C14.4361 17.3938 13.6364 20.0303 13.6364 22.7273C13.6364 26.3439 15.073 29.8123 17.6304 32.3696C20.1877 34.927 23.6561 36.3636 27.2727 36.3636V36.3636ZM27.2727 18.1818C28.1717 18.1818 29.0505 18.4484 29.798 18.9479C30.5455 19.4473 31.1281 20.1572 31.4722 20.9878C31.8162 21.8184 31.9062 22.7323 31.7308 23.614C31.5555 24.4958 31.1225 25.3057 30.4868 25.9414C29.8512 26.5771 29.0412 27.01 28.1595 27.1854C27.2778 27.3608 26.3638 27.2708 25.5333 26.9267C24.7027 26.5827 23.9928 26.0001 23.4933 25.2526C22.9939 24.5051 22.7273 23.6263 22.7273 22.7273C22.7273 21.5217 23.2062 20.3656 24.0586 19.5132C24.911 18.6607 26.0672 18.1818 27.2727 18.1818ZM86.3636 9.09091H50C48.7945 9.09091 47.6383 9.5698 46.7859 10.4222C45.9334 11.2747 45.4545 12.4308 45.4545 13.6364V40.9091H9.09091V4.54545C9.09091 3.33992 8.61201 2.18377 7.75958 1.33133C6.90714 0.478896 5.75098 0 4.54545 0C3.33992 0 2.18377 0.478896 1.33133 1.33133C0.478895 2.18377 0 3.33992 0 4.54545V63.6364C0 64.8419 0.478895 65.9981 1.33133 66.8505C2.18377 67.7029 3.33992 68.1818 4.54545 68.1818C5.75098 68.1818 6.90714 67.7029 7.75958 66.8505C8.61201 65.9981 9.09091 64.8419 9.09091 63.6364V50H90.9091V63.6364C90.9091 64.8419 91.388 65.9981 92.2404 66.8505C93.0929 67.7029 94.249 68.1818 95.4545 68.1818C96.6601 68.1818 97.8162 67.7029 98.6687 66.8505C99.5211 65.9981 100 64.8419 100 63.6364V22.7273C100 19.1107 98.5633 15.6422 96.006 13.0849C93.4487 10.5276 89.9802 9.09091 86.3636 9.09091ZM90.9091 40.9091H54.5455V18.1818H86.3636C87.5692 18.1818 88.7253 18.6607 89.5778 19.5132C90.4302 20.3656 90.9091 21.5217 90.9091 22.7273V40.9091Z" fill="white"/>
</svg>
