<svg width="100" height="90" viewBox="0 0 100 90" fill="none" xmlns="http://www.w3.org/2000/svg">
<path d="M93.86 30.78L87.02 10.255C84.975 4.12 79.26 0 72.795 0H27.205C20.74 0 15.025 4.12 12.98 10.255L6.14 30.78C2.54 32.295 0 35.855 0 40V65C0 68.765 2.115 72.01 5.195 73.715C5.13 74.045 5 74.345 5 74.69V85C5 87.765 7.235 90 10 90H15C17.765 90 20 87.765 20 85V75H80V85C80 87.765 82.235 90 85 90H90C92.765 90 95 87.765 95 85V74.69C95 74.345 94.87 74.04 94.805 73.715C97.885 72.01 100 68.765 100 65V40C100 35.855 97.46 32.295 93.86 30.78ZM10 65V40H90L90.01 65H10ZM27.205 10H72.79C74.945 10 76.855 11.37 77.535 13.42L83.065 30H16.935L22.46 13.42C23.145 11.37 25.055 10 27.205 10V10Z" fill="white"/>
<path d="M22.5 60C26.6421 60 30 56.6421 30 52.5C30 48.3579 26.6421 45 22.5 45C18.3579 45 15 48.3579 15 52.5C15 56.6421 18.3579 60 22.5 60Z" fill="white"/>
<path d="M77.5 60C81.6421 60 85 56.6421 85 52.5C85 48.3579 81.6421 45 77.5 45C73.3579 45 70 48.3579 70 52.5C70 56.6421 73.3579 60 77.5 60Z" fill="white"/>
</svg>
