<svg width="58" height="60" viewBox="0 0 58 60" fill="none" xmlns="http://www.w3.org/2000/svg">
<path d="M3.15762 0C1.4135 0 0 1.48245 0 3.31166V56.6883C0 58.517 1.41328 59.9999 3.15762 59.9999H30.5569V36.7647H23.1018V27.7096H30.5569V21.0313C30.5569 13.2817 35.0699 9.06192 41.6617 9.06192C44.8191 9.06192 47.533 9.30852 48.3237 9.41887V17.5177L43.7519 17.52C40.1673 17.52 39.4731 19.3068 39.4731 21.9285V27.7096H48.0229L46.9095 36.7648H39.4731V60H54.0515C55.795 60 57.2087 58.5173 57.2087 56.6883V3.31171C57.2087 1.48251 55.7952 5.62254e-05 54.0515 5.62254e-05H3.15762V0Z" fill="black"/>
</svg>
