<svg width="19" height="30" viewBox="0 0 19 30" fill="none" xmlns="http://www.w3.org/2000/svg">
<path fill-rule="evenodd" clip-rule="evenodd" d="M18.8169 9.72757C18.8169 4.43551 14.7479 0 9.41596 0C4.08401 0 0 4.43852 0 9.73208C0 11.4783 0.243867 12.7955 1.07106 14.3008H1.05525L9.10511 29.8217C9.40768 30.2364 9.72531 29.7976 9.72531 29.7976C9.45359 30.2048 17.7752 14.3008 17.7752 14.3008H17.7684C18.5873 12.7955 18.8169 11.4753 18.8169 9.72757ZM5.08131 9.42951C5.08131 6.93289 7.02246 4.91045 9.41596 4.91045C11.8087 4.91045 13.7514 6.93289 13.7514 9.42951C13.7514 11.9261 11.8087 13.9493 9.41596 13.9493C7.02246 13.9493 5.08131 11.9269 5.08131 9.42951V9.42951Z" fill="black"/>
</svg>
