<svg width="45" height="30" viewBox="0 0 45 30" fill="none" xmlns="http://www.w3.org/2000/svg">
<path d="M1.435 3.215L20.185 13.2875C20.815 13.625 21.63 13.785 22.45 13.785C23.27 13.785 24.085 13.625 24.715 13.2875L43.465 3.215C44.6875 2.5575 45.8425 0 43.6 0H1.3025C-0.939996 0 0.215004 2.5575 1.435 3.215V3.215ZM44.0325 8.7225L24.715 18.79C23.865 19.235 23.27 19.2875 22.45 19.2875C21.63 19.2875 21.035 19.235 20.185 18.79C19.335 18.345 2.3525 9.4425 0.965004 8.72C-0.00999585 8.21 4.04015e-06 8.8075 4.04015e-06 9.2675V27.5C4.04015e-06 28.55 1.415 30 2.5 30H42.5C43.585 30 45 28.55 45 27.5V9.27C45 8.81 45.01 8.2125 44.0325 8.7225V8.7225Z" fill="black"/>
</svg>
