<svg width="60" height="78" viewBox="0 0 60 78" fill="none" xmlns="http://www.w3.org/2000/svg">
<path d="M0 27.6935C0 24.4536 0.682213 21.2402 2.04423 18.0509C3.40624 14.8616 5.36128 11.9062 7.90692 9.17974C10.4526 6.45571 13.7961 4.24274 17.9352 2.54564C22.0743 0.848548 26.6666 0 31.7048 0C39.8817 0 46.593 2.51913 51.8385 7.55979C57.0841 12.6005 59.7069 18.5403 59.7069 25.3793C59.7069 34.1733 57.4843 41.4366 53.0342 47.1715C48.5842 52.9065 42.8396 55.7727 35.7933 55.7727C33.4815 55.7727 31.3071 55.2303 29.2773 54.1528C27.2427 53.0704 25.8156 51.7614 24.996 50.2162L21.9104 62.4068C21.6548 63.3807 21.3198 64.3715 20.9075 65.3743C20.4977 66.3772 20.0469 67.3414 19.5576 68.2671C19.0682 69.1928 18.5813 70.0654 18.0919 70.8899C17.6025 71.7143 17.1156 72.4857 16.6262 73.2041C16.1369 73.9249 15.7126 74.53 15.3534 75.0169C14.9942 75.5039 14.6591 75.9305 14.3506 76.2897L13.8853 76.9093C13.731 77.1166 13.5261 77.1913 13.2682 77.1407C13.0127 77.0901 12.8584 76.9358 12.8054 76.6803C12.8054 76.6296 12.7668 76.268 12.6896 75.6003C12.6125 74.9325 12.5354 74.2238 12.4582 73.4789C12.3811 72.7316 12.3039 71.7698 12.2268 70.5861C12.1497 69.4025 12.1256 68.2575 12.1497 67.1534C12.1762 66.0469 12.2509 64.8247 12.3811 63.4868C12.5088 62.1489 12.7017 60.917 12.9596 59.7864C13.5261 57.3686 15.4281 49.3194 18.668 35.639C18.2558 34.817 17.9207 33.8262 17.6652 32.6691C17.4073 31.512 17.2795 30.5742 17.2795 29.8534L17.2048 28.6963C17.2048 25.4058 18.0389 22.6673 19.7119 20.4809C21.3824 18.2968 23.4026 17.2024 25.7674 17.2024C27.6718 17.2024 29.1495 17.8316 30.203 19.0923C31.2589 20.3507 31.7844 21.9345 31.7844 23.8365C31.7844 25.0201 31.5674 26.4713 31.1311 28.1949C30.6948 29.9185 30.1138 31.8977 29.393 34.1348C28.6746 36.3718 28.1588 38.1846 27.8502 39.5732C27.3367 41.8898 27.7875 43.8955 29.2002 45.5901C30.6176 47.2872 32.5052 48.1382 34.8724 48.1382C38.9368 48.1382 42.29 45.836 44.9417 41.2341C47.5886 36.6298 48.912 31.0636 48.912 24.5332C48.912 19.5455 47.2921 15.4691 44.0497 12.3064C40.8098 9.14358 36.2851 7.5622 30.4754 7.5622C23.9956 7.5622 18.7355 9.645 14.7001 13.8106C10.6623 17.9762 8.64458 22.9638 8.64458 28.7759C8.64458 32.2207 9.62089 35.1255 11.5759 37.4928C12.2437 38.2642 12.451 39.0886 12.193 39.9613C12.0894 40.2192 11.9351 40.8098 11.7302 41.7355C11.5253 42.6612 11.371 43.2518 11.2674 43.5098C11.1661 44.0739 10.9082 44.4475 10.496 44.6259C10.0837 44.8067 9.62089 44.7946 9.10742 44.5873C6.07001 43.3531 3.79436 41.2317 2.27565 38.2232C0.756943 35.2147 0 31.7048 0 27.6935V27.6935Z" fill="black"/>
</svg>
