<svg width="60" height="60" viewBox="0 0 60 60" fill="none" xmlns="http://www.w3.org/2000/svg">
<path d="M29.8534 0C13.3618 0 0 13.3618 0 29.8534C0 46.3451 13.3618 59.7069 29.8534 59.7069C46.3451 59.7069 59.7069 46.3451 59.7069 29.8534C59.7069 13.3618 46.3451 0 29.8534 0ZM50.2573 40.7957C49.836 41.7707 48.0785 42.481 44.8644 42.9866C44.6959 43.2153 44.5635 44.1662 44.3468 44.9005C44.2144 45.3459 43.9014 45.6108 43.3718 45.6108H43.3477C42.6014 45.6108 41.8069 45.2617 40.242 45.2617C38.1233 45.2617 37.389 45.7432 35.7399 46.9108C33.9944 48.1507 32.3212 49.21 29.8173 49.1017C27.2894 49.2943 25.1708 47.7535 23.9791 46.9108C22.3179 45.7432 21.5956 45.2617 19.477 45.2617C17.9723 45.2617 17.0213 45.6348 16.3712 45.6348C15.7212 45.6348 15.4684 45.2376 15.3721 44.9126C15.1554 44.1783 15.023 43.2153 14.8545 42.9866C13.1933 42.7338 9.46162 42.0837 9.37735 40.4105C9.35328 39.9771 9.65422 39.5919 10.0876 39.5197C15.661 38.6048 18.1649 32.8869 18.2732 32.6462C18.2732 32.6342 18.2852 32.6221 18.2973 32.6101C18.5982 32.0082 18.6584 31.5026 18.4899 31.1054C18.0806 30.1544 16.3351 29.8173 15.6008 29.5164C13.6989 28.7701 13.4341 27.9033 13.5544 27.3135C13.747 26.2903 15.2879 25.6523 16.1907 26.0736C16.9009 26.4107 17.5389 26.5792 18.0806 26.5792C18.4778 26.5792 18.7427 26.4829 18.8751 26.4107C18.7066 23.5337 18.3093 19.4288 19.3325 17.1296C22.041 11.0747 27.7709 10.5932 29.4562 10.5932C29.5284 10.5932 30.1905 10.5811 30.2627 10.5811C34.4398 10.5811 38.4484 12.7238 40.4105 17.1176C41.4337 19.4168 41.0365 23.5096 40.8679 26.3986C41.0003 26.4709 41.217 26.5551 41.5541 26.5672C42.0717 26.5431 42.6615 26.3746 43.3236 26.0616C43.8051 25.8329 44.4792 25.869 44.9607 26.0616C45.7191 26.3384 46.2006 26.8801 46.2127 27.4941C46.2247 28.2765 45.5265 28.9506 44.1422 29.4923C43.9736 29.5645 43.769 29.6247 43.5523 29.697C42.7699 29.9497 41.5781 30.3229 41.2652 31.0813C41.0966 31.4785 41.1689 31.9841 41.4578 32.586C41.4698 32.598 41.4698 32.6101 41.4818 32.6221C41.5902 32.8629 44.094 38.5808 49.6675 39.4956C50.149 39.616 50.5221 40.1577 50.2573 40.7957V40.7957Z" fill="black"/>
</svg>
