<svg width="31" height="30" viewBox="0 0 31 30" fill="none" xmlns="http://www.w3.org/2000/svg">
<path d="M29.9919 23.6758C29.9203 23.2334 29.643 22.8553 29.2276 22.6306L23.0821 19.0098L23.0316 18.9816C22.7833 18.8542 22.4961 18.7886 22.2012 18.7886C21.6863 18.7886 21.1946 18.9837 20.8533 19.3258L19.0395 21.1405C18.9619 21.2142 18.709 21.321 18.6322 21.3248C18.6112 21.3231 16.5217 21.1726 12.675 17.3255C8.83515 13.4865 8.67225 11.3906 8.67096 11.3906C8.6731 11.2834 8.77856 11.0313 8.85358 10.9533L10.4003 9.40696C10.9452 8.8608 11.1085 7.95539 10.7853 7.25403L7.36942 0.826533C7.12121 0.315523 6.63892 0 6.1039 0C5.72536 0 5.36011 0.156904 5.07459 0.44199L0.858329 4.64882C0.454065 5.05094 0.10596 5.75401 0.0300803 6.3199C-0.00678787 6.59041 -0.75487 13.0475 8.09779 21.9014C15.6133 29.4161 21.4737 30 23.092 30C23.4401 30 23.6429 29.9751 23.6819 29.9696C24.2461 29.8941 24.9483 29.5469 25.35 29.1443L29.5628 24.9319C29.9066 24.5864 30.0635 24.1298 29.9919 23.6758V23.6758Z" fill="#231F20"/>
</svg>
