<svg width="60" height="49" viewBox="0 0 60 49" fill="none" xmlns="http://www.w3.org/2000/svg">
<path d="M59.7069 5.7456C57.5112 6.71854 55.1525 7.37593 52.6728 7.67307C55.2024 6.15844 57.1431 3.75502 58.0582 0.894052C55.6915 2.29824 53.0699 3.31851 50.2799 3.86546C48.0448 1.48833 44.863 0 41.3394 0C34.5761 0 29.0909 5.48527 29.0909 12.2538C29.0909 13.2109 29.2013 14.1418 29.4064 15.0411C19.2221 14.5284 10.2001 9.65051 4.15734 2.24039C3.10551 4.05479 2.50071 6.15844 2.50071 8.39883C2.50071 12.6482 4.66485 16.4006 7.94917 18.5963C5.94018 18.5306 4.05216 17.981 2.40079 17.0633V17.221C2.40079 23.1559 6.62124 28.1074 12.2275 29.2329C11.1967 29.5116 10.1159 29.6588 9.001 29.6588C8.21213 29.6588 7.44167 29.5852 6.69487 29.4432C8.2542 34.3079 12.7771 37.8526 18.1387 37.9472C13.9446 41.2342 8.66179 43.1932 2.92407 43.1932C1.93536 43.1932 0.959786 43.1354 0 43.0223C5.42216 46.5012 11.8593 48.526 18.7751 48.526C41.3104 48.526 53.63 29.8613 53.63 13.6737C53.63 13.1478 53.6168 12.6167 53.5932 12.0907C55.9861 10.3605 58.0634 8.20688 59.7016 5.75349L59.7069 5.7456Z" fill="black"/>
</svg>
